<svg id="Layer_1" height="512" viewBox="0 0 512 512" width="512" xmlns="http://www.w3.org/2000/svg" data-name="Layer 1"><path d="m425.63 433.75c2.09 4.4 3.51 7.97 3.51 12.88a19.975 19.975 0 0 1 -39.95 0c0-4.91 1.68-9 3.51-12.88 3.23-6.86 16.47-26.36 16.47-26.36s13.19 19.45 16.46 26.36z" fill="#88ced8"/><path d="m265.86 376.5a15.84 15.84 0 0 1 -11.34-4.72 16.165 16.165 0 0 1 -4.66-11.41v-17.41a6 6 0 0 1 6-6h20a6 6 0 0 1 6 6v17.41a16.017 16.017 0 0 1 -16 16.13z" fill="#6d7486"/><path d="m288.52 205.5c-23.16 0-23.16-10-46.33-10s-23.17 10-46.33 10v45a10 10 0 0 0 10 10h120a10 10 0 0 0 10-10v-55c-23.17 0-24.17 10-47.34 10z" fill="#7ce5e9"/><path d="m325.86 95.74h-120a10 10 0 0 0 -10 10v99.76c23.16 0 23.16-10 46.33-10s23.17 10 46.33 10 24.17-10 47.34-10v-89.76a10 10 0 0 0 -10-10zm-13.4 22.6a.457.457 0 0 1 0-.91.456.456 0 0 1 0 .91z" fill="#d4e1f4"/><path d="m220.86 260.5v15a14 14 0 0 0 14 14h60a14 14 0 0 0 14-14v-15z" fill="#88ced8"/><path d="m286.86 289.5v15a10 10 0 0 1 -10 10h-24a10 10 0 0 1 -10-10v-15z" fill="#b0b5ca"/><path d="m409.19 446.63c0-4.91 1.68-9 3.51-12.88a127.481 127.481 0 0 1 6.465-11.091c-4.71-7.474-10-15.269-10-15.269s-13.24 19.5-16.47 26.36c-1.83 3.88-3.51 7.97-3.51 12.88a19.957 19.957 0 0 0 29.976 17.253 19.916 19.916 0 0 1 -9.971-17.253z" fill="#74b4b5"/><path d="m269.86 360.37v-17.41a6 6 0 0 1 6-6h-20a6 6 0 0 0 -6 6v17.41a16.165 16.165 0 0 0 4.66 11.41 15.965 15.965 0 0 0 21.337 1.2 15.989 15.989 0 0 1 -1.337-1.2 16.165 16.165 0 0 1 -4.66-11.41z" fill="#5a616d"/><path d="m225.86 250.5v-52.686c-9.1 2.953-14.067 7.686-30 7.686v45a10 10 0 0 0 10 10h30a10 10 0 0 1 -10-10z" fill="#6accca"/><path d="m205.86 95.74a10 10 0 0 0 -10 10v99.76c15.933 0 20.9-4.732 30-7.686v-92.074a10 10 0 0 1 10-10z" fill="#b3c1ce"/><path d="m312.05 117.88a.431.431 0 0 0 .41.46.456.456 0 0 0 0-.91.428.428 0 0 0 -.41.45z" fill="#d4e1f4"/><path d="m240.86 275.5v-15h-20v15a14 14 0 0 0 14 14h20a14 14 0 0 1 -14-14z" fill="#67b0b2"/><path d="m262.86 304.5v-15h-20v15a10 10 0 0 0 10 10h20a10 10 0 0 1 -10-10z" fill="#999ead"/><g fill="#344d6b"><path d="m403.61 324.375v60.061a6 6 0 1 0 12 0v-60.061a38.875 38.875 0 0 0 -77.75 0v102.061a33 33 0 1 1 -66 0v-44.779a22.146 22.146 0 0 0 16-21.286v-17.413a12.013 12.013 0 0 0 -12-12h-4v-10.458h5a16.018 16.018 0 0 0 16-16v-9h2a20.022 20.022 0 0 0 20-20v-9h11a16.018 16.018 0 0 0 16-16v-144.764a16.018 16.018 0 0 0 -16-16h-54v-13.909a37.155 37.155 0 0 0 30.047-35.9l.323-15a6 6 0 0 0 -12-.259l-.324 15.064a25.025 25.025 0 0 1 -50.048-.261v-14.971a6 6 0 0 0 -6-6h-141a16.019 16.019 0 0 0 -16 16v453a6 6 0 0 0 12 0v-453a4 4 0 0 1 4-4h135v8.975a37.074 37.074 0 0 0 32 36.675v13.586h-54a16.019 16.019 0 0 0 -16 16v144.764a16.019 16.019 0 0 0 16 16h9v9a20.023 20.023 0 0 0 20 20h2v9a16.019 16.019 0 0 0 16 16h7v10.458h-4a12.014 12.014 0 0 0 -12 12v17.413a22.147 22.147 0 0 0 16 21.286v44.779a45 45 0 1 0 90 0v-102.061a26.875 26.875 0 0 1 53.75 0zm-201.75-131.875h18.14a6 6 0 0 0 0-12h-18.14v-18h7.14a6 6 0 0 0 0-12h-7.14v-18h18.14a6 6 0 0 0 0-12h-18.14v-14.764a4 4 0 0 1 4-4h120a4 4 0 0 1 4 4v84a59.945 59.945 0 0 0 -19.962 5.217c-5.892 2.438-10.982 4.544-21.374 4.544-10.343 0-15.184-2.089-20.789-4.509a56.479 56.479 0 0 0 -25.546-5.491 56.456 56.456 0 0 0 -25.543 5.492c-4.39 1.894-8.322 3.582-14.786 4.227zm4 62a4 4 0 0 1 -4-4v-18h7.14a6 6 0 0 0 0-12h-7.14v-9.241a55.92 55.92 0 0 0 19.542-5.25c5.605-2.42 10.445-4.509 20.787-4.509s15.186 2.089 20.79 4.509a56.481 56.481 0 0 0 25.545 5.491c12.777 0 19.782-2.9 25.962-5.456 4.63-1.915 8.775-3.621 15.374-4.266v48.722a4 4 0 0 1 -4 4zm29 29a8.009 8.009 0 0 1 -8-8v-9h76v9a8.009 8.009 0 0 1 -8 8zm14 21v-9h32v9a4 4 0 0 1 -4 4h-24a4 4 0 0 1 -4-4zm17 65.686a6 6 0 0 0 -1.477.191 10.1 10.1 0 0 1 -8.523-10.006l-.007-17.412h20.007v17.413a10.1 10.1 0 0 1 -8.522 10.006 6 6 0 0 0 -1.478-.192z"/><path d="m414.132 404.025a6 6 0 0 0 -4.964-2.632 6 6 0 0 0 -4.964 2.63c-1.382 2.036-13.6 20.094-16.93 27.168-1.974 4.2-4.081 9.2-4.081 15.44a25.975 25.975 0 0 0 51.949 0c0-6.31-1.934-10.912-4.089-15.456-3.375-7.112-15.544-25.119-16.921-27.15zm-4.966 56.557a13.978 13.978 0 0 1 -13.975-13.951c0-3.773 1.39-7.039 2.939-10.329 1.684-3.579 6.8-11.624 11.034-18.083 4.228 6.451 9.333 14.489 11.044 18.1 1.986 4.189 2.932 6.8 2.932 10.315a13.978 13.978 0 0 1 -13.974 13.948z"/><ellipse cx="312.464" cy="117.884" rx="6.418" ry="6.458"/><path d="m312.882 128.9a6 6 0 0 0 -6 6v41.392a6 6 0 0 0 12 0v-41.392a6 6 0 0 0 -6-6z"/></g></svg>