<svg id="Layer_1" height="512" viewBox="0 0 512 512" width="512" xmlns="http://www.w3.org/2000/svg" data-name="Layer 1"><path d="m228.86 39.475a36.073 36.073 0 0 0 32 35.795v21.23h10v-21.51a36.149 36.149 0 0 0 30.047-35.083l.323-15a5 5 0 0 0 -10-.216l-.324 15.054a26.025 26.025 0 0 1 -52.048-.272v-14.973a5 5 0 0 0 -5-5h-141a15.017 15.017 0 0 0 -15 15v453a5 5 0 0 0 10 0v-453a5.006 5.006 0 0 1 5-5h136z"/><path d="m404.61 324.375v60.061a5 5 0 1 0 10 0v-60.061a37.875 37.875 0 0 0 -75.75 0v102.061a34 34 0 1 1 -68 0v-45.567a21.123 21.123 0 0 0 16-20.5v-17.411a11.012 11.012 0 0 0 -11-11h-5v-17.458h-10v17.458h-5a11.013 11.013 0 0 0 -11 11v17.413a21.123 21.123 0 0 0 16 20.5v45.567a44 44 0 1 0 88 0v-102.063a27.875 27.875 0 0 1 55.75 0z"/><path d="m430.147 431.6c-3.4-7.166-16.3-26.21-16.842-27.017a5 5 0 0 0 -4.138-2.194 5 5 0 0 0 -4.137 2.192c-.55.809-13.5 19.906-16.852 27.032-1.928 4.1-3.986 8.975-3.986 15.014a24.975 24.975 0 0 0 49.949 0c-.001-6.098-1.89-10.586-3.994-15.027z"/><path d="m330.86 250.5v-49.809c-7.446.585-12 2.46-16.756 4.429-6.094 2.522-13 5.38-25.58 5.38a55.622 55.622 0 0 1 -25.148-5.409c-5.47-2.361-10.636-4.591-21.187-4.591s-15.714 2.23-21.183 4.591a54.988 54.988 0 0 1 -20.146 5.24v11.169h8.14a5 5 0 0 1 0 10h-8.14v19a5.006 5.006 0 0 0 5 5h120a5.006 5.006 0 0 0 5-5z"/><path d="m200.86 105.736v15.764h19.14a5 5 0 0 1 0 10h-19.14v20h8.14a5 5 0 0 1 0 10h-8.14v20h19.14a5 5 0 0 1 0 10h-19.14v8.807c7.331-.585 11.658-2.444 16.183-4.4a61.154 61.154 0 0 1 50.3 0c5.47 2.36 10.635 4.59 21.185 4.59 10.591 0 16.014-2.244 21.756-4.62 5.233-2.165 11.076-4.573 20.58-5.212v-84.929a5.006 5.006 0 0 0 -5-5h-120a5.006 5.006 0 0 0 -5.004 5zm117.022 70.555a5 5 0 0 1 -10 0v-41.391a5 5 0 0 1 10 0zm-5.418-63.864a5.458 5.458 0 1 1 -5.418 5.457 5.444 5.444 0 0 1 5.418-5.457z"/><path d="m303.86 275.5v-10h-78v10a9.01 9.01 0 0 0 9 9h60a9.01 9.01 0 0 0 9-9z"/><path d="m252.86 309.5h24a5.006 5.006 0 0 0 5-5v-10h-34v10a5.006 5.006 0 0 0 5 5z"/></svg>